<svg width="1200" height="760" viewBox="0 0 1200 760" fill="none" xmlns="http://www.w3.org/2000/svg">
  <defs>
    <linearGradient id="bg" x1="120" y1="70" x2="1050" y2="650" gradientUnits="userSpaceOnUse">
      <stop stop-color="#EEF2FF"/>
      <stop offset="1" stop-color="#F8FAFC"/>
    </linearGradient>
    <radialGradient id="g1" cx="0" cy="0" r="1" gradientUnits="userSpaceOnUse" gradientTransform="translate(290 180) rotate(35) scale(350 220)">
      <stop stop-color="#6366F1" stop-opacity="0.35"/>
      <stop offset="1" stop-color="#6366F1" stop-opacity="0"/>
    </radialGradient>
    <radialGradient id="g2" cx="0" cy="0" r="1" gradientUnits="userSpaceOnUse" gradientTransform="translate(860 200) rotate(8) scale(320 210)">
      <stop stop-color="#2563EB" stop-opacity="0.28"/>
      <stop offset="1" stop-color="#2563EB" stop-opacity="0"/>
    </radialGradient>
    <radialGradient id="g3" cx="0" cy="0" r="1" gradientUnits="userSpaceOnUse" gradientTransform="translate(660 610) rotate(-6) scale(390 190)">
      <stop stop-color="#0EA5E9" stop-opacity="0.20"/>
      <stop offset="1" stop-color="#0EA5E9" stop-opacity="0"/>
    </radialGradient>
  </defs>

  <rect x="20" y="20" width="1160" height="720" rx="36" fill="url(#bg)" stroke="rgba(15,23,42,0.12)"/>

  <g opacity="0.42">
    <path d="M70 620C180 560 250 560 355 620C470 688 560 691 674 620C770 562 866 562 980 620" stroke="#334155" stroke-opacity="0.2" stroke-width="1.4"/>
    <path d="M70 570C190 520 255 520 355 570C470 630 560 634 674 570C785 508 876 508 980 570" stroke="#334155" stroke-opacity="0.14" stroke-width="1.2"/>
    <path d="M70 520C190 472 254 472 355 520C470 577 560 580 674 520C784 459 876 459 980 520" stroke="#334155" stroke-opacity="0.1" stroke-width="1"/>
  </g>

  <circle cx="330" cy="220" r="240" fill="url(#g1)"/>
  <circle cx="880" cy="210" r="225" fill="url(#g2)"/>
  <circle cx="650" cy="620" r="220" fill="url(#g3)"/>

  <rect x="168" y="188" width="866" height="384" rx="24" fill="white" fill-opacity="0.68" stroke="rgba(15,23,42,0.1)"/>
  <rect x="208" y="232" width="430" height="20" rx="10" fill="#CBD5E1"/>
  <rect x="208" y="270" width="300" height="14" rx="7" fill="#E2E8F0"/>
  <rect x="208" y="306" width="520" height="14" rx="7" fill="#E2E8F0"/>

  <rect x="208" y="364" width="150" height="44" rx="22" fill="#2563EB"/>
  <rect x="378" y="364" width="150" height="44" rx="22" fill="white" stroke="#CBD5E1"/>

  <rect x="710" y="232" width="274" height="294" rx="18" fill="white" stroke="#E2E8F0"/>
  <rect x="734" y="262" width="228" height="12" rx="6" fill="#CBD5E1"/>
  <rect x="734" y="292" width="180" height="10" rx="5" fill="#E2E8F0"/>
  <rect x="734" y="320" width="210" height="10" rx="5" fill="#E2E8F0"/>
  <rect x="734" y="358" width="228" height="142" rx="14" fill="#F8FAFC" stroke="#E2E8F0"/>
</svg>
